<?xml version="1.0" encoding="utf-8"?>
<!-- Generator: Adobe Illustrator 24.0.1, SVG Export Plug-In . SVG Version: 6.00 Build 0)  -->
<svg version="1.0"
	 id="svg8" xmlns:cc="http://creativecommons.org/ns#" xmlns:dc="http://purl.org/dc/elements/1.1/" xmlns:inkscape="http://www.inkscape.org/namespaces/inkscape" xmlns:rdf="http://www.w3.org/1999/02/22-rdf-syntax-ns#" xmlns:sodipodi="http://sodipodi.sourceforge.net/DTD/sodipodi-0.dtd" xmlns:svg="http://www.w3.org/2000/svg"
	 xmlns="http://www.w3.org/2000/svg" xmlns:xlink="http://www.w3.org/1999/xlink" x="0px" y="0px" viewBox="0 0 595.3 595.3"
	 style="enable-background:new 0 0 595.3 595.3;" xml:space="preserve">
<style type="text/css">
	.st0{fill:#E7F5ED;}
	.st1{fill:#D3B466;}
</style>
<sodipodi:namedview  bordercolor="#666666" borderlayer="false" borderopacity="1.0" id="base" inkscape:current-layer="g1046" inkscape:cx="341.82297" inkscape:cy="499.99149" inkscape:document-rotation="0" inkscape:document-units="mm" inkscape:pagecheckerboard="false" inkscape:pageopacity="0" inkscape:pageshadow="2" inkscape:showpageshadow="true" inkscape:window-height="1016" inkscape:window-maximized="1" inkscape:window-width="1848" inkscape:window-x="72" inkscape:window-y="27" inkscape:zoom="0.7" pagecolor="#ffffff" showborder="true" showgrid="false">
	</sodipodi:namedview>
<g id="g982">
	<path id="rect833" class="st0" d="M200.8,0.4H393c109.6,0,198.5,89.7,198.5,200.3v194C591.4,505.3,502.6,595,393,595H200.8
		C91.1,595,2.3,505.3,2.3,394.7v-194C2.3,90.1,91.1,0.4,200.8,0.4z"/>
	<g>
		<path class="st1" d="M72,218.5h61.7c6.6-0.2,12.7-1.2,18.1-2.8c2.3-0.7,4.4-1,6.2-1c6.3,0,12.5,4.9,18.4,14.8
			c6,9.9,8.9,20,8.9,30.4c0,7.1-2.1,12.4-6.2,15.7c-3.1,2.5-6.9,3.7-11.2,3.7c-4.1,0-7.7-1.2-10.8-3.6c-3-2.4-6-6.4-9-12
			c-2.6-5.1-4.6-8.4-6.1-10c-1.5-1.6-3.3-2.3-5.4-2.3c-2.9,0-5,1.3-6.2,3.8c-1.2,2.5-1.9,6.7-1.9,12.6v69c0,7.1,0.7,12.2,2.1,15.4
			c1.4,3.2,4.1,5.7,8,7.4c4.2,1.9,7.1,3.7,8.6,5.4c1.5,1.7,2.3,4,2.3,7c0,5.9-3.8,10.3-11.4,13.2c-7.6,2.9-19.3,4.3-35,4.3
			c-19.3,0-33.7-1.7-43.1-5.1c-7.9-2.8-11.8-7.3-11.8-13.6c0-3.4,1.4-6,4.2-7.9c0.7-0.4,3.5-1.4,8.3-3c3-0.9,5-2.6,6.1-5.2
			c1.1-2.5,2-7.4,2.7-14.7c0.6-6.4,1.2-16.8,1.8-31.1c0.5-14.3,0.8-26.8,0.8-37.3c0-7.4-0.5-12.7-1.6-15.8c-1.1-3.1-2.9-4.7-5.4-4.7
			c-3,0-6,2.3-8.9,6.9c-5.2,8.4-9.5,13.9-12.9,16.6c-4,3.2-7.8,4.8-11.6,4.8c-4.2,0-7.7-1.7-10.4-5c-2.7-3.3-4.1-7.6-4.1-12.8
			c0-5.1,1.1-10.7,3.3-16.8c2.2-6.1,5.1-11.8,8.8-16.9c5.9-8.4,11.8-12.6,17.5-12.6c1.6,0,3.4,0.2,5.4,0.7c4.2,0.9,7.7,1.5,10.4,1.8
			C65.4,218.3,68.5,218.5,72,218.5z"/>
		<path class="st1" d="M318.8,288.1l44.7,59c2.7,3.5,4.7,5.8,6.2,7c1.5,1.2,3.6,2.3,6.3,3.2c4.3,1.5,7.3,3.2,9.1,5.1
			c1.8,1.9,2.6,4.4,2.6,7.5c0,3-1,5.7-2.9,8.3c-2,2.6-4.4,4.5-7.5,5.7c-4.7,1.9-10.5,3.2-17.5,4c-7,0.8-16.8,1.2-29.2,1.2
			c-13.3,0-23.3-0.8-30-2.3c-3.9-1-7-2.6-9.2-4.8c-2.3-2.2-3.4-4.7-3.4-7.5c0-3.5,1.6-6.4,4.7-8.6c3.1-2.1,4.7-3.9,4.7-5.4
			c0-4.1-4.5-12.5-13.6-25c-1.2-1.6-2.2-2.3-3-2.3c-0.8,0-1.7,0.7-2.7,2c-3.7,4.8-7,9.5-9.9,14.3c-2.8,4.8-4.3,7.8-4.3,9.2
			c0,1.3,1.6,3.3,4.8,5.9c3.1,2.5,4.7,5.6,4.7,9.4c0,5.7-3,9.5-9.1,11.5c-8,2.6-17.4,3.9-28.4,3.9c-12.5,0-22.1-1.1-28.8-3.3
			c-2.7-0.9-5-2.6-6.9-5.1c-1.9-2.5-2.8-5.1-2.8-7.8c0-3.6,1.1-6.5,3.5-8.5c2.3-2.1,5.6-3.2,9.9-3.3c5.1-0.2,9.5-1.8,13.1-4.9
			c3.6-3.1,9.8-10.5,18.7-22.4l18.1-23.9c1-1.3,1.5-2.3,1.5-3.1c0-0.5-0.5-1.4-1.5-2.7l-29.9-40.3c-4.7-6.4-7.8-10.3-9.2-11.7
			c-1.5-1.4-3.9-2.6-7.1-3.7c-4.7-1.6-7.7-3-9.1-4.3c-2.7-2.5-4-5.6-4-9.1c0-7.4,5.5-12.4,16.6-15c11.7-2.8,24.9-4.2,39.7-4.2
			c15.5,0,26,1.1,31.6,3.2c2.4,0.9,4.4,2.5,5.8,4.7c1.5,2.2,2.2,4.6,2.2,7.3c0,4.1-1.4,7.2-4.3,9.4c-1.8,1.3-2.9,2.2-3.2,2.6
			c-0.4,0.4-0.5,1.1-0.5,2c0,1.9,1.4,4.8,4.3,8.8c2.9,3.9,5,5.9,6.4,5.9c1.2,0,3.5-2.1,6.8-6.3c3.3-4.2,4.9-7.1,4.9-8.8
			c0-1-0.2-1.7-0.6-2.2c-0.4-0.5-1.9-1.8-4.5-3.8c-2.3-1.8-3.5-4.5-3.5-8.1c0-5.2,3-8.9,9.1-11.2c6.1-2.3,16-3.5,29.7-3.5
			c10.1,0,17.8,0.9,23.3,2.6c6.9,2.1,10.3,6.4,10.3,12.8c0,4.3-1.8,7.5-5.3,9.6c-1.4,0.8-5.1,1.4-11,1.8c-3.9,0.3-7.9,2.1-12,5.4
			c-4.1,3.3-8.9,8.6-14.3,15.9l-13.8,18.2c-1,1.4-1.5,2.4-1.5,3.1C317.3,285.9,317.8,286.8,318.8,288.1z"/>
		<path class="st1" d="M454.3,218.5H516c6.6-0.2,12.7-1.2,18.1-2.8c2.3-0.7,4.4-1,6.2-1c6.3,0,12.5,4.9,18.4,14.8c6,9.9,9,20,9,30.4
			c0,7.1-2.1,12.4-6.2,15.7c-3.1,2.5-6.9,3.7-11.2,3.7c-4.1,0-7.7-1.2-10.8-3.6c-3-2.4-6-6.4-9-12c-2.6-5.1-4.6-8.4-6.1-10
			c-1.5-1.6-3.3-2.3-5.4-2.3c-2.9,0-5,1.3-6.2,3.8c-1.2,2.5-1.9,6.7-1.9,12.6v69c0,7.1,0.7,12.2,2.1,15.4c1.4,3.2,4.1,5.7,8,7.4
			c4.2,1.9,7.1,3.7,8.6,5.4c1.5,1.7,2.3,4,2.3,7c0,5.9-3.8,10.3-11.4,13.2c-7.6,2.9-19.3,4.3-35,4.3c-19.3,0-33.7-1.7-43.1-5.1
			c-7.9-2.8-11.8-7.3-11.8-13.6c0-3.4,1.4-6,4.2-7.9c0.7-0.4,3.5-1.4,8.3-3c3-0.9,5-2.6,6.1-5.2c1.1-2.5,2-7.4,2.7-14.7
			c0.6-6.4,1.2-16.8,1.8-31.1c0.5-14.3,0.8-26.8,0.8-37.3c0-7.4-0.5-12.7-1.6-15.8c-1.1-3.1-2.9-4.7-5.4-4.7c-3,0-6,2.3-8.9,6.9
			c-5.2,8.4-9.5,13.9-12.9,16.6c-4,3.2-7.8,4.8-11.6,4.8c-4.2,0-7.7-1.7-10.4-5c-2.7-3.3-4.1-7.6-4.1-12.8c0-5.1,1.1-10.7,3.3-16.8
			c2.2-6.1,5.1-11.8,8.8-16.9c5.9-8.4,11.8-12.6,17.5-12.6c1.6,0,3.4,0.2,5.4,0.7c4.2,0.9,7.7,1.5,10.4,1.8
			C447.7,218.3,450.8,218.5,454.3,218.5z"/>
	</g>
</g>
</svg>
